#!OML:ASF F:\VICON\USERDATA\INSTALL\Justin_Nancy\Justin_Nancy.ASF
:FULLY-SPECIFIED
:DEGREES
207
root 3.4613 17.2124 -0.207931 4.08621 -41.0377 -3.01811
lowerback 6.42248 3.2725 3.81412
upperback 0.693479 4.67508 2.3511
thorax -2.76976 2.28509 -0.108595
lowerneck -19.2174 -3.72649 -8.00228
upperneck 23.2181 -4.00959 4.47663
head 10.943 -2.01225 2.35073
rclavicle 7.68303e-014 -1.98785e-014
rhumerus -27.9159 -11.8385 -79.9786
rradius 35.5075
rwrist 3.94668
rhand -12.0074 14.5244
rfingers 7.12502
rthumb 14.0499 -14.9807
lclavicle 7.68303e-014 -1.98785e-014
lhumerus -33.9478 13.9297 82.1144
lradius 24.8536
lwrist -11.2672
lhand -14.2206 26.4412
lfingers 7.12502
lthumb 11.9164 56.082
rfemur 7.66112 4.22498 32.7266
rtibia 22.3247
rfoot -16.0049 2.24801
rtoes 7.73158
lfemur -30.496 -9.19202 -14.7787
ltibia 23.0164
lfoot -10.891 -7.18455
ltoes -20.0627
208
root 3.36833 17.2252 -0.0623029 4.08364 -41.5129 -2.71747
lowerback 6.09683 3.35617 3.52119
upperback 0.615005 4.75214 2.27852
thorax -2.68442 2.32858 -0.009587
lowerneck -19.1969 -3.72166 -7.99037
upperneck 23.344 -4.01424 4.47518
head 10.9858 -2.01577 2.34888
rclavicle -6.92765e-014 -1.98785e-014
rhumerus -28.0391 -12.2581 -79.8309
rradius 35.1262
rwrist 4.51183
rhand -12.3414 14.6284
rfingers 7.12502
rthumb 13.728 -14.8987
lclavicle -6.92765e-014 -1.98785e-014
lhumerus -33.9077 14.3176 81.8872
lradius 24.4169
lwrist -11.6684
lhand -14.2103 26.324
lfingers 7.12502
lthumb 11.9264 55.9643
rfemur 7.07401 4.10141 32.2343
rtibia 23.9703
rfoot -15.638 2.64286
rtoes 4.07809
lfemur -29.8689 -9.13098 -15.2706
ltibia 22.9804
lfoot -10.037 -7.95453
ltoes -22.5642
209
root 3.27153 17.2408 0.0887145 3.71403 -42.2159 -2.18363
lowerback 5.94704 3.43541 3.03819
upperback 0.467443 4.82596 2.24535
thorax -2.78838 2.36955 0.220911
lowerneck -18.4218 -3.68455 -8.43424
upperneck 23.1666 -3.94251 4.6608
head 10.7813 -2.01023 2.50607
rclavicle 1.23545e-013 1.51076e-014
rhumerus -28.6141 -11.8841 -79.7415
rradius 34.9494
rwrist 4.07672
rhand -13.0096 14.0307
rfingers 7.12502
rthumb 13.0839 -15.5389
lclavicle 1.23545e-013 1.51076e-014
lhumerus -34.3458 14.8625 81.5975
lradius 23.9959
lwrist -12.0125
lhand -14.1249 26.3171
lfingers 7.12502
lthumb 12.0087 55.9526
rfemur 6.90362 4.10664 31.4443
rtibia 25.4235
rfoot -15.0899 3.54253
rtoes 0.684887
lfemur -29.277 -8.65934 -15.9987
ltibia 23.3561
lfoot -8.84388 -8.60823
ltoes -22.7248
210
root 3.17827 17.2202 0.237366 3.305 -42.5014 -1.80868
lowerback 5.91432 3.34296 2.85089
upperback 0.407776 4.68998 2.14757
thorax -2.84047 2.30335 0.234424
lowerneck -17.7628 -3.60584 -8.87467
upperneck 23.101 -3.85183 4.99019
head 10.641 -1.97834 2.71732
rclavicle 2.5842e-015 -5.56597e-015
rhumerus -29.011 -11.6779 -79.8581
rradius 34.7169
rwrist 3.92952
rhand -13.5251 13.9155
rfingers 7.12502
rthumb 12.587 -15.6853
lclavicle 2.5842e-015 -5.56597e-015
lhumerus -34.7936 15.5787 81.1184
lradius 23.7417
lwrist -12.3388
lhand -14.2694 26.2639
lfingers 7.12502
lthumb 11.8694 55.9075
rfemur 6.82181 4.25006 30.8597
rtibia 27.2694
rfoot -14.2139 4.88585
rtoes 3.92038
lfemur -29.0283 -9.36385 -16.0346
ltibia 23.5122
lfoot -6.40352 -8.81551
ltoes -14.4541
211
root 3.07867 17.271 0.371965 3.2476 -42.9425 -1.9808
lowerback 6.04114 3.29298 2.84297
upperback 0.407976 4.63013 2.22238
thorax -2.91892 2.2726 0.312104
lowerneck -17.5533 -3.51966 -9.12938
upperneck 23.0292 -3.73435 5.21443
head 10.5751 -1.92321 2.85922
rclavicle -5.86415e-015 2.38542e-015
rhumerus -29.312 -11.4778 -79.8735
rradius 34.4841
rwrist 4.15175
rhand -13.5938 14.1404
rfingers 7.12502
rthumb 12.5207 -15.4645
lclavicle -5.86415e-015 2.38542e-015
lhumerus -34.9051 16.316 80.7199
lradius 23.3678
lwrist -12.7065
lhand -14.1014 26.5932
lfingers 7.12502
lthumb 12.0313 56.2274
rfemur 6.28009 4.3294 30.8336
rtibia 29.3297
rfoot -12.9942 5.40825
rtoes 1.72112
lfemur -28.2137 -8.39121 -16.3167
ltibia 23.6294
lfoot -6.22857 -9.01462
ltoes -15.9298
212
root 2.98339 17.2861 0.499307 2.97322 -43.1794 -1.71196
lowerback 6.1433 3.16639 2.47261
upperback 0.361564 4.4446 2.25939
thorax -3.05738 2.18397 0.561908
lowerneck -17.3647 -3.4124 -9.23651
upperneck 22.9698 -3.56691 5.2014
head 10.5056 -1.86025 2.89708
rclavicle 2.35063e-014 -1.27222e-014
rhumerus -29.6288 -11.0618 -79.8904
rradius 34.2508
rwrist 3.65174
rhand -13.9168 13.888
rfingers 7.12502
rthumb 12.2093 -15.7356
lclavicle 2.35063e-014 -1.27222e-014
lhumerus -35.0849 17.1561 80.2945
lradius 23.0226
lwrist -13.4333
lhand -13.4937 26.9556
lfingers 7.12502
lthumb 12.6173 56.5545
rfemur 5.47565 4.40513 30.4832
rtibia 31.7822
rfoot -11.561 6.12355
rtoes 1.33451
lfemur -27.6725 -8.23549 -16.5339
ltibia 23.6357
lfoot -5.30393 -8.84768
ltoes -12.1605
213
root 2.88787 17.2973 0.630981 2.38262 -43.1339 -1.21954
lowerback 6.31819 2.98135 2.06326
upperback 0.383241 4.1759 2.24086
thorax -3.16196 2.05532 0.7831
lowerneck -17.1979 -3.3102 -9.49926
upperneck 23.1433 -3.40295 5.31519
head 10.5309 -1.80134 3.00967
rclavicle 6.55989e-015 1.59028e-015
rhumerus -29.6825 -11.1852 -79.8802
rradius 33.6823
rwrist 3.5772
rhand -13.9069 14.5003
rfingers 7.12502
rthumb 12.2189 -15.1228
lclavicle 6.55989e-015 1.59028e-015
lhumerus -35.359 18.1394 79.8494
lradius 22.6709
lwrist -14.0738
lhand -13.6913 26.3925
lfingers 7.12502
lthumb 12.4267 56.0031
rfemur 4.68112 3.90876 29.8244
rtibia 34.3753
rfoot -9.65375 7.11067
rtoes 1.95324
lfemur -26.8898 -7.74892 -17.2635
ltibia 23.8778
lfoot -5.54127 -8.69625
ltoes -15.662
214
root 2.788 17.3229 0.765381 1.74314 -43.4168 -0.735056
lowerback 6.53161 3.02345 1.72756
upperback 0.522397 4.20404 2.0163
thorax -3.14439 2.07331 0.728382
lowerneck -17.2413 -3.27041 -9.2156
upperneck 23.0901 -3.41718 5.29516
head 10.5138 -1.78362 2.95179
rclavicle -9.65597e-014 5.56597e-015
rhumerus -29.5664 -12.3093 -79.9327
rradius 33.0467
rwrist 4.22159
rhand -13.9099 14.4915
rfingers 7.12502
rthumb 12.216 -15.1317
lclavicle -9.65597e-014 5.56597e-015
lhumerus -35.1149 18.1028 79.6205
lradius 22.178
lwrist -13.7792
lhand -14.5431 25.6833
lfingers 7.12502
lthumb 11.6054 55.3419
rfemur 3.749 3.56474 29.055
rtibia 37.2962
rfoot -7.14032 8.03248
rtoes 5.28574
lfemur -25.8866 -6.89828 -18.0588
ltibia 24.1068
lfoot -6.08469 -8.04164
ltoes -20.6857
215
root 2.69732 17.3188 0.886479 1.65351 -43.6083 -0.942218
lowerback 6.82779 2.99805 1.83303
upperback 0.62189 4.18073 1.94455
thorax -3.194 2.05886 0.584764
lowerneck -17.4636 -3.22456 -8.78768
upperneck 23.0165 -3.41641 5.16304
head 10.5174 -1.75648 2.83007
rclavicle -1.09332e-014 -2.38542e-015
rhumerus -29.5026 -13.3309 -79.9869
rradius 32.529
rwrist 4.92105
rhand -14.2293 13.4256
rfingers 7.12502
rthumb 11.908 -16.2157
lclavicle -1.09332e-014 -2.38542e-015
lhumerus -34.8642 18.4833 79.2321
lradius 21.7478
lwrist -13.9983
lhand -14.9894 25.5373
lfingers 7.12502
lthumb 11.1749 55.2197
rfemur 2.45299 3.1804 28.8749
rtibia 40.3644
rfoot -3.95992 8.5512
rtoes 8.36243
lfemur -25.3578 -7.41975 -17.5534
ltibia 24.0956
lfoot -4.82733 -7.5617
ltoes -12.2087
216
root 2.60464 17.3456 1.00593 1.64858 -43.7768 -1.11071
lowerback 6.98155 2.83999 1.81467
upperback 0.549105 3.98031 2.08236
thorax -3.36658 1.95832 0.744952
lowerneck -17.1119 -3.08477 -8.90532
upperneck 22.9218 -3.18243 5.02634
head 10.3975 -1.68035 2.83412
rclavicle 4.14963e-014 -1.66979e-014
rhumerus -29.8598 -13.5617 -79.7251
rradius 32.2192
rwrist 5.76152
rhand -13.63 13.3543
rfingers 7.12502
rthumb 12.4858 -16.2527
lclavicle 4.14963e-014 -1.66979e-014
lhumerus -35.33 19.6269 78.6919
lradius 21.6061
lwrist -14.8664
lhand -14.8153 26.091
lfingers 7.12502
lthumb 11.3429 55.7643
rfemur 1.00301 2.71066 28.6288
rtibia 43.2271
rfoot -0.384732 8.92482
rtoes 8.09576
lfemur -24.4771 -5.94577 -17.9593
ltibia 24.3075
lfoot -6.40977 -8.93616
ltoes -19.2816
217
root 2.51039 17.3376 1.14694 1.33001 -43.9883 -0.848007
lowerback 6.87249 2.66112 1.6434
upperback 0.536003 3.72764 2.11799
thorax -3.33173 1.8361 0.906319
lowerneck -16.7282 -2.9361 -9.10893
upperneck 22.8441 -2.94314 4.98606
head 10.2804 -1.59823 2.88784
rclavicle 3.03147e-014 9.54166e-015
rhumerus -30.3079 -13.5308 -79.4665
rradius 32.0479
rwrist 6.56926
rhand -12.8047 13.837
rfingers 7.12502
rthumb 13.2814 -15.7199
lclavicle 3.03147e-014 9.54166e-015
lhumerus -35.8429 20.5601 78.196
lradius 21.5298
lwrist -15.5515
lhand -14.1133 26.5356
lfingers 7.12502
lthumb 12.0198 56.1705
rfemur -0.390366 2.05325 27.8755
rtibia 46.0737
rfoot 2.76161 9.65769
rtoes 5.78302
lfemur -24.0206 -6.22254 -18.0776
ltibia 24.2382
lfoot -5.38574 -10.1845
ltoes -8.68093
218
root 2.41084 17.356 1.29526 0.83507 -44.44 -0.37708
lowerback 6.68605 2.65841 1.45499
upperback 0.718007 3.69298 1.91725
thorax -3.03737 1.82288 0.822153
lowerneck -16.9563 -2.83732 -8.94325
upperneck 22.9366 -2.84486 5.03808
head 10.3463 -1.53117 2.89337
rclavicle 9.54166e-015 -3.97569e-015
rhumerus -30.5044 -13.6999 -79.6654
rradius 32.0365
rwrist 6.19798
rhand -12.885 13.6501
rfingers 7.12502
rthumb 13.2041 -15.9118
lclavicle 9.54166e-015 -3.97569e-015
lhumerus -35.7002 20.5476 78.0456
lradius 21.3661
lwrist -15.7019
lhand -13.4979 26.2728
lfingers 7.12502
lthumb 12.6132 55.872
rfemur -1.62721 1.63657 26.9187
rtibia 48.5298
rfoot 5.79353 10.6106
rtoes 5.07601
lfemur -23.4992 -5.97094 -18.6341
ltibia 24.9841
lfoot -5.82734 -10.7568
ltoes -4.97125
219
root 2.31203 17.3764 1.43815 -0.0462081 -44.957 0.494199
lowerback 6.74008 2.63668 0.820451
upperback 0.829638 3.61241 1.77458
thorax -2.98159 1.79048 1.03653
lowerneck -16.866 -2.69785 -9.02452
upperneck 22.926 -2.66106 5.13662
head 10.3125 -1.44406 2.96847
rclavicle 3.51849e-014 4.77083e-015
rhumerus -30.7948 -13.3115 -79.8189
rradius 32.0533
rwrist 5.47077
rhand -13.2521 13.3895
rfingers 7.12502
rthumb 12.8502 -16.1949
lclavicle 3.51849e-014 4.77083e-015
lhumerus -35.7775 20.6381 77.9535
lradius 21.2973
lwrist -15.6384
lhand -12.3841 26.4585
lfingers 7.12502
lthumb 13.6868 55.9884
rfemur -2.75508 1.38965 25.7471
rtibia 50.7608
rfoot 8.89517 11.3209
rtoes 5.43099
lfemur -23.0243 -5.57442 -19.507
ltibia 26.1502
lfoot -6.60393 -10.9521
ltoes -2.20129
